<?xml version="1.0" encoding="utf-8"?>
<!-- Generator: Adobe Illustrator 19.2.0, SVG Export Plug-In . SVG Version: 6.00 Build 0)  -->
<svg version="1.1" id="Layer_1" xmlns="http://www.w3.org/2000/svg" xmlns:xlink="http://www.w3.org/1999/xlink" x="0px" y="0px"
	 viewBox="0 0 32.3 40.4" style="enable-background:new 0 0 32.3 40.4;" xml:space="preserve">
<style type="text/css">
	.st0{fill:#FDC300;}
</style>
<g>
	<g>
		<polygon class="st0" points="19.2,10.5 17.6,10.4 16.6,11.8 16.7,10.1 15.4,9.2 17,9.3 17.9,7.9 17.9,9.6 		"/>
		<polygon class="st0" points="29.9,4.5 28.3,4.4 27.3,5.7 27.4,4.1 26.1,3.2 27.7,3.2 28.6,1.9 28.5,3.5 		"/>
		<polygon class="st0" points="25.2,17.6 24.3,17.5 23.8,18.3 23.8,17.4 23.1,16.8 24,16.9 24.5,16.2 24.4,17.1 		"/>
		<polygon class="st0" points="22.1,6.1 21.9,5.4 21.2,5.4 21.9,5.2 22,4.5 22.1,5.2 22.8,5.2 22.2,5.4 		"/>
		<polygon class="st0" points="26.2,12.3 26,11.7 25.4,11.7 26,11.5 26,10.9 26.2,11.5 26.8,11.5 26.2,11.7 		"/>
		<polygon class="st0" points="30.5,10.5 30.4,10 29.8,10 30.3,9.8 30.4,9.3 30.5,9.8 31.1,9.9 30.6,10 		"/>
		<path class="st0" d="M22.5,11.3c-0.2,0.4-0.3,0.8-0.5,1.1c-3.3,4.4-6.9,8.7-9.7,13.3c-2.2,3.7-4.9,7-7.3,10.5
			c-0.2,0.3-0.1,0.9-0.4,1.2c-0.5,0.5-1.1,1.2-1.7,1.2c-0.5,0-1.4-0.5-1.6-1c-0.2-0.6,0-1.8,0.4-2C3.3,34.7,4,33.2,5,31.9
			c1.3-1.6,2.4-3.3,3.7-4.9c0.6-0.8,1.6-1.2,2.2-2c3.5-4.4,6.9-8.8,10.3-13.2c0.3-0.3,0.6-0.6,0.9-0.9
			C22.3,11.1,22.4,11.2,22.5,11.3z M3.9,34.4L3.9,34.4c0.1,0.1,0.3,0.1,0.4,0l1.4-1.8c0.1-0.1,0.1-0.3,0-0.4l0,0
			c-0.1-0.1-0.3-0.1-0.4,0L3.9,34C3.8,34.2,3.8,34.3,3.9,34.4z M6.2,31.4L6.2,31.4c0.1,0.1,0.3,0.1,0.4,0l0.7-1
			c0.1-0.1,0.1-0.3,0-0.4l0,0c-0.1-0.1-0.3-0.1-0.4,0l-0.7,1C6.1,31.1,6.1,31.3,6.2,31.4z"/>
	</g>
</g>
</svg>
