<?xml version="1.0" encoding="utf-8"?>
<!-- Generator: Adobe Illustrator 19.2.0, SVG Export Plug-In . SVG Version: 6.00 Build 0)  -->
<svg version="1.1" id="Layer_1" xmlns="http://www.w3.org/2000/svg" xmlns:xlink="http://www.w3.org/1999/xlink" x="0px" y="0px"
	 viewBox="0 0 56.3 50.4" style="enable-background:new 0 0 56.3 50.4;" xml:space="preserve">
<style type="text/css">
	.st0{fill:#FDC300;}
</style>
<g>
	<path class="st0" d="M5.9,47.2l-3,3c-0.2,0.2-0.5,0.2-0.7,0C2,50.2,2,50,2,49.9c0.3-4.3,2.5-8.2,6-10.8c-0.6,2-1.9,5.8-2,7.8
		C6,47,5.9,47.2,5.9,47.2z M42.7,14.3l-2.2-1.1c-0.5-0.2-1.1-0.1-1.3,0.4s-0.1,1.1,0.4,1.3c0,0,0,0,0,0l1,0.5
		c-3.5,1.7-6.7,4-9.3,6.8c-1.6,0.6-3.4,0.9-5.1,0.8c-0.5,0-1,0.4-1,1c0,0,0,0,0,0c0,0.6,0.5,1,1,1c0,0,0,0,0.1,0c1,0,2-0.1,3-0.2
		c-1.1,1.7-2.1,3.5-2.9,5.4c-2.6,1.7-4.3,1.8-7.2,1.8c-0.6,0-1,0.4-1,1s0.4,1,1,1c1.9,0.1,3.8-0.1,5.7-0.7
		c-3.6,5.6-7.9,5.3-12.8,4.9c-0.6,0-1.2-0.1-1.8-0.1C15.8,24.4,28.2,14.4,48.3,7c0.5-0.2,0.8-0.8,0.6-1.3c-0.2-0.5-0.8-0.8-1.3-0.6
		C29.9,11.6,17.9,20.2,11,31.6c0,0,0,0.1-0.1,0.1c-0.9,1.5-1.8,2.9-2.9,4.3c-2-4.5-2-8.3-0.9-11.4c0.1,1,0.4,2,0.9,2.9
		C8.3,28,8.9,28.2,9.4,28c0.5-0.2,0.7-0.8,0.5-1.3l0,0c-0.7-1.8-1-3.7-0.9-5.6c1.9-2.6,4.2-4.8,6.8-6.5c-1.1,1.6-1.7,3.5-1.8,5.5
		c0,0.6,0.4,1,1,1s1-0.4,1-1c0-0.8,0.3-3.8,4.6-8.5c4.6-2.7,9.5-4.7,14.6-6.2l-0.1,0.2c-0.2,0.5,0,1.1,0.5,1.3
		c0.5,0.2,1.1,0,1.3-0.4l0.9-1.8c2.7-0.7,5.3-1.3,7.8-1.9C49,2.1,52.4,1.2,55.7,0c0.3-0.1,0.5,0,0.7,0.3c0.1,0.1,0,0.3,0,0.4
		C52.8,8.7,47.9,11.6,42.7,14.3z"/>
</g>
</svg>
