<svg id="Layer_1" data-name="Layer 1" xmlns="http://www.w3.org/2000/svg" viewBox="0 0 719.78 651.22"><defs><style>.cls-1{fill:#28231b;}</style></defs><title>LOGO_color</title><g id="Mr1n8D.tif"><path class="cls-1" d="M341.9,637.58c-10.09,0-20,.15-30-0.18-1.26,0-2.91-2.4-3.57-4-6.73-16.49-13.29-33-19.89-49.59q-14-35-27.92-70a10.53,10.53,0,0,0-2.56-4,14,14,0,0,0-.6,2.85c0,37.32,0,74.63-.08,112a8.24,8.24,0,0,0,3.45,7.25c1.84,1.39,3.45,3.08,6,5.36H220.4A28.63,28.63,0,0,1,224,633.6c4.49-3,5.53-7,5.51-12.32-0.19-58.47-.12-117-0.12-175.43,0-2.8,0-5.6,0-8.63a26.06,26.06,0,0,1,3.3-.48c8.5,0,17,.05,25.49-0.07,2.55,0,3.83.85,4.74,3.27q24,63.78,48.17,127.51a13.14,13.14,0,0,0,3.07,5.1c0.1-1.4.28-2.8,0.28-4.2q0-59.47.09-118.95a7.5,7.5,0,0,0-2.89-6.47c-2-1.62-3.88-3.41-6.69-5.92H341.9V637.58Z"/><path class="cls-1" d="M73,243.11h34.72c-2.33,2.14-3.76,3.69-5.43,4.92-2.22,1.64-2.52,3.63-2,6.15q11,50.23,22,100.47a3.59,3.59,0,0,0,1.81,2.24c0.34-1.81.79-3.62,1-5.44q5.22-42.39,10.39-84.78c0.43-3.47.76-7,1.53-10.37,0.9-4,.21-7.19-3.39-9.52a36.8,36.8,0,0,1-3.34-2.73l0.53-.87h38.57a8.94,8.94,0,0,1-1.77,2.32c-4.94,3-6,7.78-6.7,13.14-5.06,38.12-10.37,76.21-15.57,114.32-1.71,12.54-3.19,25.11-5.13,37.62-0.71,4.59-.13,8.17,4,10.66,1,0.59,1.94,1.23,2.9,1.85l-0.71,1.11h-40c1-1.21,1.46-2.15,2.21-2.6,4.57-2.78,5-6.38,3.71-11.43-7.22-29.07-14.06-58.23-21-87.36a4.46,4.46,0,0,0-1.88-2.69c-0.47,1.65-1,3.29-1.39,5-7,29.14-13.87,58.3-20.92,87.42-0.75,3.11-.58,5.45,2.2,7.39A49.39,49.39,0,0,1,74,424.18H33.27a6.73,6.73,0,0,1,1.28-1.85c5.69-3.32,5.74-8.19,4.9-14.08-6.07-42.86-11.84-85.75-17.7-128.64-1-7.59-2.28-15.17-2.94-22.79-0.39-4.47-1.73-8-5.55-10.5l-2.95-1.92L11,243.25H49.36a7.54,7.54,0,0,1-1.57,2.19c-4.7,3-5.45,7-4.73,12.35,4.29,32.35,8.23,64.74,12.3,97.12a2.89,2.89,0,0,0,1.47,2c0.51-1.75,1.13-3.47,1.52-5.25,7-31.53,13.8-63.09,20.94-94.58,1.09-4.79,1-8.42-3.58-11.08C74.89,245.53,74.35,244.58,73,243.11Z"/><path class="cls-1" d="M102.2,437h45.27a15.55,15.55,0,0,1-2.28,2.59c-5.41,3.54-6.78,8.37-6.74,14.82,0.29,43.64.08,87.29,0.18,130.93a55,55,0,0,0,1.54,13.82c2.76,10.44,10.3,15.82,20.93,15.71,10.27-.11,17.61-5.68,20.31-15.9a45.25,45.25,0,0,0,1.47-11.33c0.1-45.81,0-91.62.13-137.43,0-3.28-.75-5.74-3.48-7.7a69.83,69.83,0,0,1-5.87-5.4h37.11c0.1,1.3.31,2.72,0.31,4.14,0,50.31.4,100.62-.16,150.93-0.22,19.46-7.8,36.24-26.83,44.38-18.47,7.89-37.31,7.43-54.3-4.35-14.17-9.82-19.06-24.88-19.31-41.38-0.36-23.32-.09-46.64-0.09-70,0-22.82-.15-45.65.1-68.47,0.05-5-1-8.74-5.24-11.42l-4.11-2.63Z"/><path class="cls-1" d="M598.81,557.19L597.5,555c-4.38-7.24-10.78-9.41-19-8.46-5.76.66-11.65,0.16-17.48,0.21a7.33,7.33,0,0,0-1.72.55v65.41c1.48,0.14,2.76.37,4,.38,12.33,0,24.66-.06,37,0,2.84,0,4.54-.86,5.92-3.44a166.66,166.66,0,0,1,11.61-18.86V637.2H521.36a57,57,0,0,1,5.41-5c3.07-2.17,3.78-5,3.78-8.6q-0.14-89.48-.06-179c0-2.32,0-4.63,0-7.43h87.37v45.48c-3.75-5.82-7.32-10.55-10-15.75-2.38-4.66-5.46-6.24-10.63-6.05-10.82.4-21.66,0.12-32.49,0.15-1.79,0-3.57.15-5.58,0.24v60.89c7.73,0,15.2-.39,22.6.12,6.05,0.42,10.71-1,13.93-6.31,0.92-1.52,2-2.92,3.06-4.37l1.3,0.93v44Z"/><path class="cls-1" d="M534.92,424.55c0-2.83,0-4.95,0-7.07q0-78.2.05-156.4a9.74,9.74,0,0,0-3.34-7.87c-3.23-3-6.19-6.24-10-10.1,2.4-.15,3.66-0.3,4.92-0.31,15.82,0,31.65-.09,47.47,0,22.67,0.17,40.5,15.23,44.5,37.48a37,37,0,0,1,.51,6.45c0,31,.18,62,0,92.94-0.11,25.07-19.62,44.51-44.75,44.81C561.57,424.68,548.77,424.55,534.92,424.55Zm23.21-24.24c5.83,0,11.16.36,16.4-.13a26.93,26.93,0,0,0,10.37-2.94c7.59-4.21,10.22-11.33,10.19-19.75-0.07-20.47,0-40.94,0-61.41,0-9.49.19-19,0-28.46-0.29-12.08-9-20.55-21-20.83-3.49-.08-7,0-10.48,0-5.36,0-5.39,0-5.39,5.65q0,61.16,0,122.32v5.56Z"/><path class="cls-1" d="M463.69,349.2c0,2.93,0,5.07,0,7.21,0,17.83.19,35.66-.12,53.49-0.09,5.16,1,9.09,5.48,11.84,0.71,0.44,1.38.94,2.07,1.41l-0.44.92H441.4c-0.09-1.81-.26-3.59-0.26-5.36q0-78,.08-156c0-4.17-1-7.38-4.16-10.07s-6.11-5.6-9.16-8.41l0.52-1.05a33.92,33.92,0,0,1,3.59-.38c14.83,0,29.66-.09,44.49,0,24.39,0.15,42.85,17.76,43.72,42.11a187.24,187.24,0,0,1-.81,28.91c-1.46,12.15-8.09,21.74-18.27,28.57-2.57,1.72-3.07,3.18-2.27,6.08,6,21.66,11.72,43.39,17.71,65,0.58,2.09,2.17,4,3.59,5.74a44.89,44.89,0,0,0,4.53,4.28l-0.46.95c-8.92,0-17.84.13-26.75-.17-1.08,0-2.65-2.18-3-3.61-5.06-18.46-9.95-37-14.87-55.45-1.07-4-2.18-8-3.13-12.07-0.64-2.75-1.76-4.48-5-4.08A68.7,68.7,0,0,1,463.69,349.2ZM464.08,325c4.19,0,8,0,11.8,0,12.31-.17,20-7.52,20.48-19.81,0.23-6.16.28-12.34,0-18.49-0.39-8-3.64-14.63-11.22-18.12-6.75-3.11-13.89-1.7-21-1.44V325Z"/><path class="cls-1" d="M260.57,401c9.68,0,18.31.15,26.92-.16,1.24,0,2.8-2.1,3.53-3.57,5.18-10.43,10.17-21,15.25-31.45a9.61,9.61,0,0,1,3.09-3.93v62.37H225.21l59.63-158.4a15.61,15.61,0,0,0-3.15-.78c-9.16-.07-18.32,0-27.48-0.13-3.1-.05-4.76,1.21-6.13,3.93-4.8,9.51-9.85,18.89-14.82,28.31-0.59,1.11-1.31,2.16-2.58,4.25V243.28H317.9Z"/><path class="cls-1" d="M405.77,469.18V437.1H515.92v32.07l-1.48,1.22c-0.71-1.29-1.38-2.6-2.14-3.85-2.93-4.82-7.27-6-12.73-5.69-7.94.42-15.91,0.11-24.55,0.11,0,2.62,0,4.55,0,6.49,0,51.47.06,102.95-.13,154.42,0,5,1.15,8.66,5.23,11.47a42.8,42.8,0,0,1,4.21,4H437.45c2.48-2.28,4.27-4.1,6.25-5.69a7.49,7.49,0,0,0,3.07-6.39q-0.1-80.71,0-161.42c0-.65-0.12-1.3-0.24-2.47-1.46-.12-2.87-0.32-4.28-0.33-7.16,0-14.34.21-21.49-.12-4.42-.21-7.77,1-10.27,4.64-1.08,1.58-2.34,3-3.52,4.56Z"/><path class="cls-1" d="M696.56,251.5l6.14-7.78,1,0.58v54.51c-1.63-1.68-2.88-2.84-4-4.13-4.55-5.31-8.93-10.78-13.63-15.95a62.72,62.72,0,0,0-9.46-8.82c-6.88-5-13.47-4.54-19.08.65a15.49,15.49,0,0,0-2.7,20c4.48,7.2,9.37,14.15,14.1,21.21,11.2,16.74,22.69,33.3,33.56,50.26,16.72,26.08,2,58.82-28.55,63.85a40.82,40.82,0,0,1-30.88-7c-1.36-.95-2.69-1.94-4.47-3.22l-7.14,7.67V365.57l0.79-.42c1.64,2.37,3.28,4.75,4.93,7.11,4.4,6.27,8.59,12.69,13.3,18.71a35.47,35.47,0,0,0,8.5,7.6,15.74,15.74,0,0,0,20.16-1.89,15.93,15.93,0,0,0,2.19-20.59c-6.33-9.78-12.91-19.41-19.4-29.09-8.9-13.27-17.91-26.48-26.71-39.82-11.29-17.12-10.76-36.29,1.22-51.59,12.56-16,37.72-19.81,54.49-8.17C692.52,248.56,694.11,249.74,696.56,251.5Z"/><path class="cls-1" d="M167.42,86.78a203,203,0,0,1,36-1.9l0.5,1.14a51.31,51.31,0,0,1-5,4.41c-3.52,2.42-5.11,5.27-4.12,9.73,1.69,7.63,2.82,15.38,4.5,23,0.32,1.45,2.39,3.81,3.07,3.62,1.84-.51,4-1.82,4.83-3.44,0.95-2,.82-4.55.76-6.86-0.45-16.48-1-33-1.51-49.45a4.75,4.75,0,0,0-.08-1.49c-0.69-1.79-1-4.44-2.34-5.07-1.14-.55-3.62.85-5.09,1.94-4.32,3.21-9.56,6-8.18,13.26-3.81-4-7.11-8.05-7.42-13.27-0.12-2,1.57-4.89,3.32-6.12,4.6-3.25,9.71-5.79,14.58-8.65,2.18-1.28,3.68-.48,5.18,1.24,3.28,3.76,6.68,7.43,10,11.13,3.08,3.39,4.15,7.43,4.18,11.95,0.1,14.49.35,29,.5,43.48,0,3.53.25,6.84,5.5,7.25-4.18,4.51-7.69,8.66-11.61,12.4-3.19,3-5.93,2.17-8-2a15.49,15.49,0,0,0-1.47-2c-2.49,1.42-4.88,2.84-7.33,4.14-4.77,2.55-8.18,1.27-9.44-4-2-8.41-3.6-16.93-5.49-25.38-1.25-5.6,0-10.18,4.75-13.68a20.11,20.11,0,0,0,2.56-2.73l-0.46-1C183.77,90,177.31,91.25,171,92.95c-1.17.31-2.22,2.31-2.67,3.74s-0.23,3.3-.23,5c0,21.16.1,42.32-.06,63.47-0.06,7.36,1.27,13.9,7.45,18.65a14.88,14.88,0,0,1,1.78,2.56c-6.12-.69-11.34-1.52-16.59-1.8-5.43-.3-10.88-0.07-16.66-0.07,0.25-.76.26-1.59,0.66-1.86,6.1-4.22,8.15-10.6,8.27-17.39,0.32-18.48.15-37,.16-55.46a6.94,6.94,0,0,0-.71-1.61l-4,2.21c-4.94,2.71-9.77,5.68-14.89,8-2.34,1.07-3.36,2.11-3.35,4.67,0.08,14-.2,28,0.22,42,0.09,3.13,2.47,6.19,3.77,9.24l-25.4-2.45a4.7,4.7,0,0,1,.91-1.73c5.47-3.31,6.16-8.36,5.94-14.22-0.37-9.82-.36-19.66,0-29.48,0.15-4.45-1.13-6.91-5.3-8.78-4.34-1.95-8.22-5-12.23-7.61a12,12,0,0,1-2.86-2.78c-2.26-3-6-6.06-3.86-10s6.79-3.87,12-4.34c-2.46,2-4.29,3.22-5.63,4.81-0.77.92-1.45,3.23-1,3.7,5.05,4.95,10.14,10,18.29,11.38,0.16-2.09.38-3.67,0.39-5.25,0.05-20.49-.1-41,0.24-61.47,0.08-4.79-2.6-7.53-5.84-11.07h25c-5.87,4.86-4.56,10.69-4.57,16.23q-0.06,27.24,0,54.48c0,1.64,0,3.28,0,5.86,2.23-.83,4-1.11,5.33-2.06,5.23-3.84,10.39-7.78,15.35-12,1-.88,1.57-2.92,1.58-4.43,0.11-19.16.26-38.32-.11-57.47-0.06-3.07-2.63-6.09-4.3-9.71l25.27-1.23a4.55,4.55,0,0,1-.5,1.76c-5.32,4.3-5.38,10.16-5.29,16.3,0.18,12.49,0,25-.07,37.48C167.41,82.19,167.42,84.15,167.42,86.78Z"/><path class="cls-1" d="M389.49,77.48v46l-3.69-8.15-1.34.17c-1.29,10.85,0,21.81-.35,33.25l-4.64-4.37-1.47.38-1.72,49-0.76,0-9.23-103.7,5.13,4.37c-0.42-11.75-3.74-22-5-32.84l5.28,1.89c-0.52-6.47-.88-12.19-1.47-17.89-0.8-7.78-2-15.53-2.59-23.32-0.34-4.46-1.52-8.08-5.45-10.53a21.48,21.48,0,0,1-2.67-2.51,31.4,31.4,0,0,1,4.09-.88c12.3-.81,24.6-1.49,36.9-2.37a6,6,0,0,1,6.13,3.2c3.55,5.63,7.48,11,11,16.7a13.65,13.65,0,0,1,2.3,6.9q-0.4,17.45-1.53,34.87c-0.36,5.51-.6,5.59,5.19,6.35,1.45,0.19,2.89.44,4.76,0.72,0.34-6.4,5.29-8.46,9.71-11,3.6-2.09,7.3-4,10.76-6.32,2.68-1.78,4.85-2,6.88.74a3.83,3.83,0,0,0,.34.36c13.7,13.94,11.54,10,12.13,28.15,0.4,12.32.41,24.65,0.83,37,0.12,3.63-1.06,6.18-4.19,7.77-5.17,2.62-10.34,5.3-15.68,7.52-1.24.52-3.24-.55-4.8-1.13a6.75,6.75,0,0,1-1.77-1.73c-17.54-17.18-12.89-11.31-14.58-34.24A165.59,165.59,0,0,1,428,84.4c0.1-3.19-1.29-4.39-4.3-4.81-4.38-.6-7.77-0.36-11.47,3.27-3,3-8.23,3.93-12.61,5.3-1,.3-2.93-1.18-3.78-2.33-2-2.75-3.71-5.79-5.52-8.72Zm66-.38c-4.81.8-8.52,1.55-12.26,2-3.22.38-4.07,2.13-4,5.1,0.27,7.49.37,15,.51,22.48,0.09,4.83,0,9.66.2,14.49,0.13,3.75,4.76,9.62,7.44,9.71,4.37,0.15,9.73-5.18,9.78-9.85,0-4.33.08-8.67-.11-13C456.64,98.09,456.07,88.15,455.49,77.1ZM386.69,68c5.05-.4,9.19-0.51,13.23-1.19,1-.17,2.46-2.22,2.44-3.39Q402,42,401,20.58c0-1.12-1.36-3-2.28-3.12-4-.55-8.09-0.59-12.07-0.81V68Zm64.37-4.48c-10.34,5.21-11.81,7.14-9.41,12.21C446.46,73.34,449.39,69.66,451.06,63.54Z"/><path class="cls-1" d="M354.47,437H399.9a53.33,53.33,0,0,1-4.89,4.58c-3.46,2.44-4.54,5.57-4.5,9.82,0.21,21.81.11,43.62,0.12,65.44,0,34.63.14,69.27-.1,103.9,0,5.85,1.08,10.42,6.24,13.51,1,0.59,2,1.14,3,1.71l-0.89,1.32H353.44c1.72-1.69,2.79-3.13,4.21-4.06,4.08-2.68,4.94-6.35,4.92-11.08q-0.23-84.67,0-169.34c0-5.11-.88-9.07-5.27-11.92-1.23-.8-2.33-1.82-3.48-2.74Z"/><path class="cls-1" d="M176.35,243.08H215.3a11.38,11.38,0,0,1-1.89,2.26c-5.07,3.09-5.68,7.74-5.66,13.26q0.27,75.48,0,151c0,5,.59,9.16,5.11,12a17.52,17.52,0,0,1,2.5,2.63H175c2.07-1.93,4-3.22,5.18-5s2.61-4,2.61-6c0.15-53,.12-106,0.19-159a7.45,7.45,0,0,0-3-6.47c-1.52-1.18-2.86-2.59-4.28-3.89Z"/><path class="cls-1" d="M332.2,64.32l18.26,0.95a44.14,44.14,0,0,1-1.19,4.29,677.42,677.42,0,0,1-46.65,93.18c-1.73,2.91-3.52,4.4-7.12,3.93-13.68-1.8-27.44-3-41-5.2-5.13-.82-10-3.55-14.88-5.54-2.17-.88-3-2.47-1.8-4.8s2.12-5,3.64-7.1c3.15-4.45,6.81-8.18,13.12-7.28,2.44,0.35,5,.06,8.72.06a28.93,28.93,0,0,1-3.31,2.6c-2.06,1.08-4.88,1.5-6.14,3.14-2.11,2.75-3.23,6.25-4.77,9.44,2.21,0.73,4.37,1.86,6.63,2.11,10.58,1.18,21.2,2,31.79,3.19,3.19,0.34,5.3-.36,6.9-3.41,5.11-9.72,10.61-19.23,15.61-29a12.63,12.63,0,0,0,1-7.6c-2.45-12.74-5.22-25.41-8-38.08-0.48-2.19-1.59-4.24-2.64-7l12.94-.6c0.26,4,.23,7.7.78,11.27,1.31,8.48,2.9,16.93,4.58,26.53,1.4-1.76,2.28-2.46,2.63-3.38C325.54,95.06,329.71,84,334,73c1.22-3.15,1.15-5.83-2.29-7.77Z"/><path class="cls-1" d="M384.9,227c3.13,2.73,3.92,6.65,4.73,10.46q8.29,39,16.43,78.1c3.4,16.27,6.39,32.65,10.27,48.8,2.11,8.81,5.78,17.24,8.56,25.9,1,3.12,1.33,6.45,2.17,9.63a42,42,0,0,0,2.64,7.9c2.29,4.64,1.48,8.74-1.57,12.55s-7.19,4.5-11.73,3.27-7.53-4.56-7.2-9.47c0.44-6.57,0-12.81-2.68-18.95a14.22,14.22,0,0,1-.88-7.34c1.37-9.8-1.18-19.18-2.68-28.66-6.39-40.4-12.9-80.78-19.23-121.18-0.55-3.48-.07-7.12-0.07-10.69Z"/><path class="cls-1" d="M377.3,223.08c0.56,3.31,1.54,6.62,1.61,9.95,0.81,35.8,1.44,71.61,2.25,107.41A24.77,24.77,0,0,0,383,349c1.53,3.75,1.11,7.39.93,11.24-0.79,16.53-2.39,33.11.91,49.54,1.15,5.7.16,10.09-4.87,13.4-2.13,1.4-9.36,2.78-10.57,1.12-2-2.69-4.21-5.46-3.22-9.43,1.56-6.23,4.5-12.26,3.31-19-0.63-3.58-1.73-7.16-1.76-10.74,0-3.29,1.71-6.63,1.54-9.88-0.35-6.62-1.38-13.2-2.31-19.78-0.39-2.75-.31-5.07,1.41-7.53A11.72,11.72,0,0,0,370,341.9c0.63-19.81,1.08-39.63,1.65-59.44,0.48-16.48,1-33,1.63-49.43,0.14-3.35,1.09-6.68,1.67-10Z"/><path class="cls-1" d="M367.63,227.1c0,3.87.46,7.81-.08,11.6-3,21.08-6.71,42.08-9.13,63.22-1.11,9.71-3.79,19.06-4.83,28.72-0.3,2.78-.25,5.59-0.42,8.38a10.54,10.54,0,0,1-.45,3.4,40.62,40.62,0,0,0-3.23,21.3,6.55,6.55,0,0,1-.35,3.42,39.87,39.87,0,0,0-3.38,23.19,4.62,4.62,0,0,1-.76,3.31c-3.86,4.53-3.2,10.35-4.63,15.55a5,5,0,0,0,.13,3.4c2.43,4.42-1.24,7.14-2.78,10.41-0.27.58-1.74,0.75-2.68,0.82a13,13,0,0,1-3-.36c-8.47-1.41-8.2-1.39-7.49-9.7,0.33-3.82.65-7.24,2.72-10.7,1.28-2.15.69-5.38,1.17-8.08s0.56-5.53,2-7.48c2.67-3.67,3.2-7.39,2.65-11.65a8.91,8.91,0,0,1,.44-4.78c3.33-6.83,3.51-14.14,4.64-21.45,1.1-7.13,3.26-14.17,4.18-21.54,1-8,4.1-15.67,5.74-23.6,4.58-22.15,8.88-44.36,13.3-66.55a26.25,26.25,0,0,1,4.6-11.12Z"/><path class="cls-1" d="M505.28,61l21.39-28c0.16,3.77.32,7.11,0.44,10.45,0.06,1.5.07,3,.08,4.5,0.11,9.25,1.31,8.16,7.62,8,1.83-.05,3.9-0.2,4.1,2.45,0.23,3-2,3-4,3.14a15.22,15.22,0,0,1-2,.07c-3.63-.21-5,1.4-4.88,5.08,0.29,9.15.26,18.32,0.39,27.48,0.22,16.15.62,32.31,0.6,48.46,0,4.46,1.35,7.33,5.51,8.88a22.82,22.82,0,0,1,2.65,1.39c5.82,3.1,6.88,2.68,10.06-4.5l-11-2.29,0.09-.46h17.82c-2.92,4.2-5.56,7.76-7.94,11.49-1.76,2.75-3.66,3.44-6.63,1.8-7.13-4-14.3-7.85-21.58-11.52-3-1.52-3.13-4-3.16-6.67q-0.3-25.73-.64-51.47c-0.1-7.16-.29-14.32-0.47-21.48-0.15-6-.18-6-5.94-6.31C507.16,61.41,506.55,61.23,505.28,61Z"/><path class="cls-1" d="M467.37,50.31L494.12,24.4c0,4.78,0,8.78,0,12.78,0.06,5.65.08,5.74,5.7,6.31,2.32,0.23,3.71.85,3.77,3.51s-1.4,3.63-3.72,3.39c-5.12-.52-5.32,1.35-5.45,6.06-0.54,20.15-1,40.3-1.51,60.45-0.15,6-.1,12-0.69,18-0.54,5.45.8,9.75,5.21,13.1a24.8,24.8,0,0,1,3.12,3.42l-1.07,1.27c-6-4.24-12.12-8.31-17.86-12.87-1.15-.91-1.13-3.67-1.14-5.58q-0.14-37.48-.12-75c0-8.16,0-8.15-8.17-8.53C470.92,50.65,469.64,50.5,467.37,50.31Z"/><path class="cls-1" d="M610.91,85.18c5.71-7,.76-13-1.14-19.25-0.33-1.08-2-1.75-3-2.61-0.7,1.19-2,2.36-2,3.56-0.12,5.82.07,11.66,0.19,17.49,0.32,15.66.6,31.32,1,47,0.16,6.18,1.4,12,7.53,15.52-5.14,1.48-20.7-.84-28.45-4.26,8.51-5.68,8.1-14.11,7.82-22.76-0.52-16-.6-32-0.88-48,0-2.84.36-6-4.72-6.53L602.7,47l2,8.16,8.6-4.36c1.21,2.12,2.41,4,3.43,6,2.2,4.3,4.47,8.58,6.35,13,0.62,1.47.84,4,0,5-3.22,3.92-7,7.42-10.49,11.08Z"/><path class="cls-1" d="M554.67,88.89c0.5,12.66.54,24.13,1.67,35.49,0.31,3.08,3.9,5.83,6,8.73L564,133,570.13,112l1.05-.45a75.46,75.46,0,0,1,5.05,8c0.49,1-.12,2.93-0.83,4.05-2.57,4.08-5.29,8.08-8.16,11.95-2.42,3.26-12,2.9-14.9-.67a110.59,110.59,0,0,1-8.46-11.73,10.86,10.86,0,0,1-1.14-5.74c0.38-15.14.79-30.28,1.49-45.41A11.69,11.69,0,0,1,547,65.5c3.13-3.65,6.83-6.8,10.23-10.22a3.75,3.75,0,0,1,5.33-.54c3.2,2.1,6.46,4.1,9.7,6.14a1.43,1.43,0,0,1,.41.28c4.85,6.58,7.12,14.3,7.78,22.12,0.24,2.85-3.33,6.36-5.81,8.95-0.93,1-3.75.49-5.6,0.12C564.68,91.5,560.4,90.3,554.67,88.89Zm16.55-2.62c-3.65-8.69-6.72-16.15-10-23.53-0.33-.75-2.25-1.63-2.67-1.34-1.06.73-2.28,2-2.38,3.21-0.46,5.28-.69,10.59-0.68,15.89,0,1.18,1.06,3.18,2,3.4C561.56,84.91,565.77,85.4,571.22,86.27Z"/><path class="cls-1" d="M233.71,129.45c6.14-4.06,4.74-9.94,4.63-15.47Q237.74,86,237,58.09c-0.2-7.63-.26-7.63-8.11-9.78l18-14,1.48,11.37,8.83-5.19c1,1.61,2.28,3,2.87,4.58,2.08,5.61,4,11.28,5.84,17a5.45,5.45,0,0,1-2.07,6.6c-2.61,2-5,4.17-7,5.81-1.49-6.91-2.86-13.64-4.44-20.31-0.24-1-1.47-1.76-2.24-2.63-0.55,1.07-1.6,2.15-1.58,3.2,0.16,8.32.51,16.63,0.85,24.94,0.5,12.3,1.19,24.6,1.48,36.91,0.11,4.7.54,8.94,5.21,11.65l-0.37,1-20.87,1.31Z"/><path class="cls-1" d="M290,44.75a24.8,24.8,0,0,0-1.06,5c-0.08,21.32-.14,42.64,0,64,0,2.64,1.42,5.26,2.28,8.24l-17.87.93c6.42-8.6,3.59-18.42,3.92-27.75,0.54-15,.48-30,0.43-45,0-3.09-1.08-6.17-1.9-10.49L288.4,29.57l0.85,10.19,8.08-5.8a36.36,36.36,0,0,1,2.16,3.88c1.87,4.62,3.48,9.36,5.5,13.92,1.47,3.33.76,5.61-2.1,7.72-2.62,1.93-5,4.2-7.88,6.1,1.59-7.63.07-14.38-3-20.83h-2Z"/><path class="cls-1" d="M271.47,228.51a1056.09,1056.09,0,0,1-136.27,0A949,949,0,0,1,271.47,228.51Z"/><path class="cls-1" d="M511.84,228.5a595.78,595.78,0,0,1-106.67.82A642.19,642.19,0,0,1,511.84,228.5Z"/><path class="cls-1" d="M270.59,208.35c14.24-1,64.72,7.76,76.83,13.15A350.69,350.69,0,0,1,270.59,208.35Z"/><path class="cls-1" d="M537.88,229.13c25.92-3.16,52-3.14,78.53-1.29C610.68,231.86,549.79,232.51,537.88,229.13Z"/><path class="cls-1" d="M544.53,196.12c-21.33,7.23-43.36,10.73-65.8,12A247.07,247.07,0,0,1,544.53,196.12Z"/><path class="cls-1" d="M340.77,142.67a232.05,232.05,0,0,1,26.1,59.75A232.63,232.63,0,0,1,340.77,142.67Z"/><path class="cls-1" d="M354,215.79a250.27,250.27,0,0,1-56.92-27C306.65,189.26,344.71,207.21,354,215.79Z"/><path class="cls-1" d="M403,222a195.28,195.28,0,0,1,55.16-10.35C452.44,216.28,417.72,222.93,403,222Z"/><path class="cls-1" d="M435.21,198.32a163,163,0,0,1,49.05-22.12C469.23,186.53,452.73,193.61,435.21,198.32Z"/><path class="cls-1" d="M348.93,228.42c-11.06,3.19-41.89,3.14-50.71.18C306.47,225.25,335.75,225,348.93,228.42Z"/><path class="cls-1" d="M385.45,202.66a151.25,151.25,0,0,1,18.94-45.5C404.35,166.66,392.34,195.59,385.45,202.66Z"/><path class="cls-1" d="M394.18,208.54a134,134,0,0,1,36.39-33.66A135.1,135.1,0,0,1,394.18,208.54Z"/><path class="cls-1" d="M323.69,177.29a130.15,130.15,0,0,1,35.93,32.19C345.45,201.21,333.69,190.23,323.69,177.29Z"/><path class="cls-1" d="M209.55,197.65a120.45,120.45,0,0,1,45.32,7.78A113.27,113.27,0,0,1,209.55,197.65Z"/><path class="cls-1" d="M419.85,206.6L399.5,216l-0.74-1.57a59.64,59.64,0,0,1,20.46-9.5Z"/><path class="cls-1" d="M408.83,148.85c-0.1-6.11,2.49-10.87,6.91-14.72C415.91,140.27,413.06,144.9,408.83,148.85Z"/></g></svg>